<svg width="20" height="21" viewBox="0 0 20 21" fill="none" xmlns="http://www.w3.org/2000/svg">
<path d="M10.0293 0.643738C7.39038 0.643738 7.05921 0.655277 6.02276 0.702443C4.98833 0.749812 4.28225 0.913579 3.66443 1.15386C3.02536 1.40205 2.48325 1.73403 1.94316 2.27432C1.40267 2.81441 1.07068 3.35652 0.821692 3.99539C0.580799 4.61341 0.416829 5.3197 0.37027 6.35372C0.323913 7.39016 0.311768 7.72154 0.311768 10.3604C0.311768 12.9993 0.323509 13.3295 0.370473 14.3659C0.418044 15.4004 0.581811 16.1064 0.821894 16.7243C1.07028 17.3633 1.40226 17.9055 1.94255 18.4455C2.48244 18.986 3.02455 19.3188 3.66322 19.567C4.28144 19.8073 4.98773 19.9711 6.02195 20.0184C7.0584 20.0656 7.38937 20.0771 10.0281 20.0771C12.6672 20.0771 12.9973 20.0656 14.0338 20.0184C15.0682 19.9711 15.7751 19.8073 16.3933 19.567C17.0322 19.3188 17.5735 18.986 18.1134 18.4455C18.6539 17.9055 18.9858 17.3633 19.2348 16.7245C19.4737 16.1064 19.6377 15.4002 19.6863 14.3661C19.7328 13.3297 19.745 12.9993 19.745 10.3604C19.745 7.72154 19.7328 7.39037 19.6863 6.35392C19.6377 5.31949 19.4737 4.61341 19.2348 3.99559C18.9858 3.35652 18.6539 2.81441 18.1134 2.27432C17.5729 1.73383 17.0324 1.40184 16.3927 1.15386C15.7733 0.913579 15.0668 0.749812 14.0324 0.702443C12.9959 0.655277 12.6659 0.643738 10.0262 0.643738H10.0293ZM9.15761 2.39477C9.41632 2.39436 9.70498 2.39477 10.0293 2.39477C12.6236 2.39477 12.9311 2.40408 13.9556 2.45064C14.903 2.49396 15.4172 2.65226 15.7597 2.78526C16.2131 2.96137 16.5364 3.1719 16.8763 3.51199C17.2164 3.85207 17.4269 4.17596 17.6034 4.62941C17.7364 4.97152 17.8949 5.48569 17.9381 6.43307C17.9846 7.45737 17.9947 7.76507 17.9947 10.3582C17.9947 12.9514 17.9846 13.2591 17.9381 14.2834C17.8947 15.2307 17.7364 15.7449 17.6034 16.087C17.4273 16.5405 17.2164 16.8633 16.8763 17.2032C16.5362 17.5433 16.2133 17.7538 15.7597 17.9299C15.4176 18.0636 14.903 18.2214 13.9556 18.2648C12.9313 18.3113 12.6236 18.3215 10.0293 18.3215C7.43472 18.3215 7.12722 18.3113 6.10292 18.2648C5.15554 18.221 4.64137 18.0627 4.29865 17.9297C3.8452 17.7536 3.52131 17.5431 3.18123 17.203C2.84115 16.8629 2.63062 16.5399 2.4541 16.0862C2.3211 15.7441 2.1626 15.2299 2.11948 14.2825C2.07292 13.2582 2.06361 12.9505 2.06361 10.3558C2.06361 7.76102 2.07292 7.45494 2.11948 6.43064C2.1628 5.48326 2.3211 4.96909 2.4541 4.62657C2.63021 4.17313 2.84115 3.84924 3.18123 3.50915C3.52131 3.16907 3.8452 2.95854 4.29865 2.78202C4.64116 2.64841 5.15554 2.49052 6.10292 2.447C6.99929 2.40651 7.34666 2.39436 9.15761 2.39234V2.39477ZM15.216 4.00814C14.5722 4.00814 14.05 4.52981 14.05 5.17374C14.05 5.81748 14.5722 6.33975 15.216 6.33975C15.8597 6.33975 16.382 5.81748 16.382 5.17374C16.382 4.53001 15.8597 4.00774 15.216 4.00774V4.00814ZM10.0293 5.37051C7.27358 5.37051 5.03935 7.60474 5.03935 10.3604C5.03935 13.1161 7.27358 15.3494 10.0293 15.3494C12.785 15.3494 15.0184 13.1161 15.0184 10.3604C15.0184 7.60474 12.7848 5.37051 10.0291 5.37051H10.0293ZM10.0293 7.12154C11.818 7.12154 13.2682 8.57155 13.2682 10.3604C13.2682 12.1491 11.818 13.5993 10.0293 13.5993C8.24039 13.5993 6.79038 12.1491 6.79038 10.3604C6.79038 8.57155 8.24039 7.12154 10.0293 7.12154V7.12154Z" fill="#056DFF"/>
</svg>
