<svg width="20" height="21" viewBox="0 0 20 21" fill="none" xmlns="http://www.w3.org/2000/svg">
<path d="M0.445312 2.03581C0.445312 1.26719 1.08419 0.643738 1.87233 0.643738H18.4515C19.2396 0.643738 19.8785 1.2672 19.8785 2.03581V18.6849C19.8785 19.4537 19.2396 20.0769 18.4515 20.0769L1.87233 20.0769C1.08419 20.0769 0.445312 19.4537 0.445312 18.6849V2.03581ZM6.44942 16.9113V8.13616H3.53271V16.9113H6.44942ZM4.99105 6.93806C6.00816 6.93806 6.64123 6.26422 6.64123 5.42212C6.62228 4.56107 6.00817 3.90593 5.01035 3.90593C4.01263 3.90593 3.36029 4.56107 3.36029 5.42212C3.36029 6.26422 3.99323 6.93806 4.97204 6.93806H4.99105ZM10.9531 16.9113V12.0109C10.9531 11.7486 10.972 11.4866 11.0491 11.2992C11.2599 10.7752 11.7398 10.2324 12.5456 10.2324C13.601 10.2324 14.0232 11.0372 14.0232 12.2168V16.9113H16.9396V11.8798C16.9396 9.18443 15.5007 7.93024 13.5817 7.93024C12.0345 7.93024 11.3408 8.78062 10.9532 9.37856V9.40879H10.9337C10.9401 9.39879 10.9466 9.38871 10.9532 9.37856V8.13616H8.03648C8.07476 8.95956 8.03648 16.9113 8.03648 16.9113H10.9531Z" fill="#056DFF"/>
</svg>
